# xmcd
#
# Track frame offsets: 
#        150
#        12021
#        30456
#        43754
#        56772
#        70807
#        85803
#        100283
#        120094
#        135926
#        151621
#        168350
#        185613
#        194916
#        211503
#        229331
#        250282
#        261916
#        281844
#        300100
#        317762
#
# Disc length: 4548 seconds
#
# Revision: 0
# Processed by: cddbd v1.5.2PL0 Copyright (c) Steve Scherf et al.
# Submitted via: ExactAudioCopyFreeDBPlugin 1.0
#
DISCID=1411c215
DTITLE=The Blues Band - Best Of The Blues Band CD2
DYEAR=2011
DGENRE=Blues
TTITLE0=Find Yourself Another Fool
TTITLE1=Noah Lewis Blues
TTITLE2=Flatfoot Sam
TTITLE3=Come On
TTITLE4=Little Baby
TTITLE5=Down In The Bottom
TTITLE6=Let The Good Times Roll
TTITLE7=Leave My Woman Alone
TTITLE8=Ultimate Time
TTITLE9=I'll Be Home Again Tonight
TTITLE10=Mean Old Frisco
TTITLE11=Green Stuff
TTITLE12=Come On In
TTITLE13=Rolling Log
TTITLE14=Take Me To The Red Line
TTITLE15=Cold Emotions, Frozen Hearts
TTITLE16=I'll Go Crazy
TTITLE17=Sweet Temptation
TTITLE18=Half The Man (Twice The Fool)
TTITLE19=Time After Time
TTITLE20=I Can Tell
EXTD=
EXTT0=
EXTT1=
EXTT2=
EXTT3=
EXTT4=
EXTT5=
EXTT6=
EXTT7=
EXTT8=
EXTT9=
EXTT10=
EXTT11=
EXTT12=
EXTT13=
EXTT14=
EXTT15=
EXTT16=
EXTT17=
EXTT18=
EXTT19=
EXTT20=
PLAYORDER=
